PathFileType	4	(X/Y/Z)	OpenSim_Sub09_EMGStiffKnee_Gyro.trc
DataRate	CameraRate	NumFrames	NumMarkers	Units	OrigDataRate	OrigDataStartFrame	OrigNumFrames
100	100	20	8	m	100	5689	7584
Frame#	Time	torso_imu_offset_imu	pelvis_imu_offset_imu	tibia_r_imu_offset_imu	femur_r_imu_offset_imu	tibia_l_imu_offset_imu	femur_l_imu_offset_imu	toes_r_imu_offset_imu	toes_l_imu_offset_imu
				X1	Y1	Z1	X2	Y2	Z2	X3	Y3	Z3	X4	Y4	Z4	X5	Y5	Z5	X6	Y6	Z6	X7	Y7	Z7	X8		Y8	Z8	

5689	56.88000000	-0.00461080	-0.34282181	-0.05982856	-0.08505101	0.33623798	0.09098228	0.08833968	1.39856098	3.25874104	0.05539071	0.01066027	0.37935115	0.15508048	0.08128520	0.60039275	-0.31269348	-0.14939176	0.71361872	-0.07863264	2.93061238	1.44070126	-0.19306787	0.07988407	0.19409974
5690	56.89000000	0.00276557	-0.35307146	-0.05286115	-0.03613375	0.31720146	0.10390923	-0.10591403	1.42206268	3.16405736	0.00315819	-0.10250544	0.32496440	0.20174172	0.10012322	0.61203119	-0.24704137	-0.13532667	0.72837626	-0.03480112	2.78573986	1.38185034	-0.20027815	0.06669741	0.21554124
5691	56.90000000	0.02552948	-0.37633000	-0.04939928	0.00515395	0.29006898	0.11876814	-0.26828619	1.43116386	3.08522148	-0.02738869	-0.21871425	0.25239542	0.21236188	0.08919605	0.62072947	-0.16741493	-0.11994345	0.72258551	-0.03377390	2.64224204	1.32515263	-0.20969518	0.05232701	0.23645887
5692	56.91000000	0.04365021	-0.39542927	-0.05710820	0.03579153	0.24960147	0.12327120	-0.45602090	1.41966634	3.00502276	-0.06678673	-0.32415934	0.17794286	0.23101079	0.08848880	0.65643038	-0.06179583	-0.10263913	0.69505029	-0.04479548	2.52111539	1.25270949	-0.18979944	0.02666072	0.25297955
5693	56.92000000	0.04801392	-0.41169791	-0.05048638	0.06920871	0.21470697	0.11823388	-0.64107754	1.34424136	2.92203741	-0.09594254	-0.37707984	0.11158630	0.26918858	0.09242664	0.69160221	0.04480770	-0.09026943	0.66768015	-0.00772009	2.49474409	1.15916862	-0.17317852	-0.01147571	0.27331143
5694	56.93000000	0.06502125	-0.41394561	-0.06481001	0.11333357	0.17588657	0.11573201	-0.79154780	1.24822255	2.83356566	-0.12542672	-0.39306251	0.07477273	0.35596273	0.10369808	0.72210108	0.13441680	-0.06264589	0.63876548	0.03626960	2.54572929	1.04610186	-0.17689406	-0.07000924	0.29869215
5695	56.94000000	0.07074968	-0.41913354	-0.05822052	0.15208210	0.14997308	0.10296278	-0.87276249	1.15892385	2.73059616	-0.18500455	-0.41603713	0.07233808	0.44399819	0.13715941	0.73160573	0.18634717	-0.04267428	0.62755050	0.05133983	2.58535330	0.89589082	-0.16301338	-0.12832100	0.31531449
5696	56.95000000	0.08501978	-0.42531999	-0.06248041	0.18747374	0.11913118	0.08456560	-0.85112945	1.05851802	2.59109846	-0.22696026	-0.44528340	0.10601454	0.51840657	0.17956403	0.76291258	0.21563407	-0.00661897	0.60257700	0.03878287	2.56809073	0.70168719	-0.14950431	-0.18877699	0.33590492
5697	56.96000000	0.13557235	-0.42295619	-0.05538959	0.20950760	0.09093918	0.07749246	-0.79544422	0.91762843	2.46418489	-0.26122925	-0.49529022	0.16852272	0.54452028	0.20436447	0.81555860	0.22480869	0.03063585	0.58911283	0.00762282	2.49237849	0.48258019	-0.13020185	-0.24351161	0.34114364
5698	56.97000000	0.18740920	-0.42567705	-0.03913182	0.22444026	0.08501896	0.06130691	-0.71704128	0.76780803	2.36524628	-0.24216075	-0.49741293	0.25963433	0.49982345	0.20474721	0.85327846	0.23139939	0.05016424	0.57955908	-0.08212015	2.38150865	0.26993183	-0.12915104	-0.31518288	0.35158727
5699	56.98000000	0.23574869	-0.42620424	-0.03310321	0.23413039	0.09988418	0.03982519	-0.61175119	0.62294017	2.27422324	-0.10700046	-0.43327886	0.36751049	0.44027394	0.22362225	0.86010096	0.20067387	0.06226744	0.57190230	-0.25181275	2.24850722	0.10684131	-0.11545986	-0.38033969	0.36226376
5700	56.99000000	0.27350133	-0.42172913	-0.02808137	0.22757494	0.12225998	0.02516999	-0.50578122	0.47220044	2.17057501	0.12057047	-0.34575260	0.48173346	0.37072905	0.20888317	0.87526255	0.13647590	0.06609066	0.58233965	-0.55326243	2.11624963	0.01789189	-0.11012398	-0.45402919	0.37497220
5701	57	0.29582652	-0.41118984	-0.00164175	0.22147457	0.14119251	-0.01010831	-0.45939486	0.29827477	2.03783337	0.39498530	-0.25958739	0.57834210	0.30258157	0.20847479	0.93232215	0.06937838	0.06437785	0.60211880	-0.86298394	1.99902473	-0.01272884	-0.08729490	-0.54200664	0.36974341
5702	57.01000000	0.30045712	-0.38794639	0.02024030	0.22250723	0.16489421	-0.02776601	-0.53931691	0.12367516	1.87403787	0.64093454	-0.16866990	0.65356511	0.29253734	0.25238682	0.98209666	0.01632075	0.08795639	0.62859370	-1.09882876	1.86449668	-0.01779759	-0.07579894	-0.61567583	0.35428702
5703	57.02000000	0.30746786	-0.36064453	0.04496743	0.22943198	0.18647936	-0.05549020	-0.61469614	-0.00806161	1.65006430	0.79282808	-0.09180596	0.67518105	0.25107843	0.27538374	0.99528332	-0.04526693	0.14290206	0.64553975	-1.21474804	1.66560446	0.00148594	-0.07481910	-0.69371929	0.35991526
5704	57.03000000	0.30452755	-0.34131966	0.07599907	0.23355496	0.19844464	-0.06003650	-0.68146444	-0.12301129	1.41678232	0.84630428	-0.04196029	0.66752334	0.14441242	0.28348155	0.99080990	-0.09431608	0.18474956	0.64963790	-1.22717317	1.40173198	0.04724803	-0.09196807	-0.77022636	0.37127221
5705	57.04000000	0.29157547	-0.30137993	0.09930256	0.24062170	0.19994197	-0.06040898	-0.76484482	-0.23585240	1.20121858	0.84431954	0.00437056	0.62571866	-0.00336673	0.26445175	1.02381682	-0.15011615	0.21394667	0.65452954	-1.09748145	1.14669778	0.11900688	-0.09386413	-0.83154403	0.39452745
5706	57.05000000	0.27862394	-0.25963642	0.12903792	0.25854972	0.18036254	-0.06384594	-0.84907108	-0.32745081	1.02046017	0.84042548	0.04992831	0.56354664	-0.05635390	0.25555801	1.07379382	-0.18801066	0.23624904	0.66155604	-0.86516404	0.93509317	0.19300017	-0.12210433	-0.88734569	0.40287160
5707	57.06000000	0.25701212	-0.20390725	0.15708093	0.28935108	0.15208908	-0.05839282	-0.83969288	-0.36329544	0.84604988	0.84440416	0.07433421	0.49874033	0.03044128	0.30941614	1.11805914	-0.18107567	0.25099106	0.66432644	-0.62018812	0.76089646	0.25850518	-0.13173772	-0.95921564	0.42595758
5708	57.07000000	0.23466060	-0.14718952	0.19015430	0.32752906	0.10943916	-0.05138369	-0.73282049	-0.37848685	0.66568874	0.84499516	0.06161813	0.42757940	0.10401327	0.39899514	1.13701870	-0.14630123	0.28399607	0.66507176	-0.43285946	0.59391454	0.30258340	-0.15848121	-1.01776943	0.45895672
